<svg width="42" height="48" viewBox="0 0 32 48" fill="none" xmlns="http://www.w3.org/2000/svg">
    <path d="M16.0296 16.4023C15.7797 16.4046 15.5408 16.5054 15.3648 16.6829C15.1889 16.8605 15.0902 17.1003 15.0902 17.3502V19.5084C15.1125 19.7433 15.2215 19.9614 15.396 20.1201C15.5705 20.2789 15.798 20.3668 16.0339 20.3668C16.2698 20.3668 16.4972 20.2789 16.6717 20.1201C16.8462 19.9614 16.9553 19.7433 16.9775 19.5084V17.3502C16.9775 17.0988 16.8777 16.8577 16.6999 16.68C16.5221 16.5022 16.281 16.4023 16.0296 16.4023Z" fill="#a7aaad"/>
    <path d="M16.0296 45.042C15.9063 45.042 15.7841 45.0663 15.6701 45.1135C15.5562 45.1607 15.4526 45.2299 15.3654 45.3171C15.2781 45.4044 15.2089 45.5079 15.1617 45.6219C15.1145 45.7359 15.0902 45.8581 15.0902 45.9814V46.667C15.0902 46.9161 15.1892 47.1551 15.3654 47.3312C15.5415 47.5074 15.7805 47.6064 16.0296 47.6064C16.2788 47.6064 16.5177 47.5074 16.6939 47.3312C16.8701 47.1551 16.9691 46.9161 16.9691 46.667V45.9645C16.9646 45.7183 16.8637 45.4837 16.688 45.3111C16.5123 45.1386 16.2759 45.042 16.0296 45.042Z" fill="#a7aaad"/>
    <path d="M23.545 40.6748C23.4217 40.6748 23.2995 40.6991 23.1855 40.7463C23.0715 40.7935 22.968 40.8627 22.8807 40.95C22.7935 41.0372 22.7243 41.1408 22.6771 41.2547C22.6299 41.3687 22.6056 41.4909 22.6056 41.6142V44.8303C22.6056 45.0795 22.7046 45.3184 22.8807 45.4946C23.0569 45.6708 23.2959 45.7698 23.545 45.7698C23.7942 45.7698 24.0331 45.6708 24.2093 45.4946C24.3855 45.3184 24.4845 45.0795 24.4845 44.8303V41.5889C24.4778 41.3441 24.3759 41.1116 24.2005 40.9409C24.025 40.7702 23.7898 40.6747 23.545 40.6748Z" fill="#a7aaad"/>
    <path d="M31.9746 19.9989V8.31949C31.9748 7.65456 31.7746 7.00501 31.4002 6.4555C31.0258 5.90599 30.4946 5.48201 29.8757 5.23883L17.1806 0.236973C16.7925 0.0835273 16.3793 0.00318602 15.9619 0C15.5445 0.00318602 15.1313 0.0835273 14.7432 0.236973L2.09046 5.23883C1.47317 5.48335 0.943729 5.9079 0.570921 6.4573C0.198113 7.0067 -0.000816539 7.65555 2.5191e-06 8.31949V35.2669L4.52791 33.4811L16.0296 28.9617L27.4636 33.4811L32 35.2669V20.0328L31.9746 19.9989ZM16.9437 25.771V22.868C16.9437 22.6189 16.8447 22.3799 16.6685 22.2037C16.4923 22.0276 16.2534 21.9286 16.0042 21.9286C15.7551 21.9286 15.5161 22.0276 15.3399 22.2037C15.1638 22.3799 15.0648 22.6189 15.0648 22.868V25.771L3.33457 30.4004V8.31949L15.0479 3.69003V13.7107C15.0479 13.9598 15.1469 14.1988 15.323 14.3749C15.4992 14.5511 15.7382 14.6501 15.9873 14.6501C16.2365 14.6501 16.4754 14.5511 16.6516 14.3749C16.8278 14.1988 16.9267 13.9598 16.9267 13.7107V3.69003L28.64 8.31949V30.4004L16.9437 25.771Z" fill="#a7aaad"/>
    <path d="M22.6056 37.2132C22.6056 37.4623 22.7046 37.7013 22.8807 37.8774C23.0569 38.0536 23.2959 38.1526 23.545 38.1526C23.7942 38.1526 24.0331 38.0536 24.2093 37.8774C24.3855 37.7013 24.4845 37.4623 24.4845 37.2132V34.818L22.6056 34.0732V37.2132Z" fill="#a7aaad"/>
    <path d="M15.0648 31.8473V41.5887C15.0648 41.8378 15.1638 42.0768 15.34 42.2529C15.5161 42.4291 15.7551 42.5281 16.0043 42.5281C16.2534 42.5281 16.4924 42.4291 16.6685 42.2529C16.8447 42.0768 16.9437 41.8378 16.9437 41.5887V31.8389L16.0296 31.4326L15.0648 31.8473Z" fill="#a7aaad"/>
    <path d="M7.56628 43.8234C7.56628 44.0725 7.66527 44.3115 7.84144 44.4876C8.01762 44.6638 8.25657 44.7628 8.50572 44.7628C8.75487 44.7628 8.99381 44.6638 9.16999 44.4876C9.34617 44.3115 9.44515 44.0725 9.44515 43.8234V34.082L7.56628 34.8183V43.8234Z" fill="#a7aaad"/>
    <path d="M16.0296 16.4023C15.7797 16.4046 15.5408 16.5054 15.3648 16.6829C15.1889 16.8605 15.0902 17.1003 15.0902 17.3502V19.5084C15.1125 19.7433 15.2215 19.9614 15.396 20.1201C15.5705 20.2789 15.798 20.3668 16.0339 20.3668C16.2698 20.3668 16.4972 20.2789 16.6717 20.1201C16.8462 19.9614 16.9553 19.7433 16.9775 19.5084V17.3502C16.9775 17.0988 16.8777 16.8577 16.6999 16.68C16.5221 16.5022 16.281 16.4023 16.0296 16.4023Z" fill="#8B4F96"/>
    <path d="M16.0296 45.042C15.9063 45.042 15.7841 45.0663 15.6701 45.1135C15.5562 45.1607 15.4526 45.2299 15.3654 45.3171C15.2781 45.4044 15.2089 45.5079 15.1617 45.6219C15.1145 45.7359 15.0902 45.8581 15.0902 45.9814V46.667C15.0902 46.9161 15.1892 47.1551 15.3654 47.3312C15.5415 47.5074 15.7805 47.6064 16.0296 47.6064C16.2788 47.6064 16.5177 47.5074 16.6939 47.3312C16.8701 47.1551 16.9691 46.9161 16.9691 46.667V45.9645C16.9646 45.7183 16.8637 45.4837 16.688 45.3111C16.5123 45.1386 16.2759 45.042 16.0296 45.042Z" fill="#8B4F96"/>
    <path d="M23.545 40.6748C23.4217 40.6748 23.2995 40.6991 23.1855 40.7463C23.0715 40.7935 22.968 40.8627 22.8807 40.95C22.7935 41.0372 22.7243 41.1408 22.6771 41.2547C22.6299 41.3687 22.6056 41.4909 22.6056 41.6142V44.8303C22.6056 45.0795 22.7046 45.3184 22.8807 45.4946C23.0569 45.6708 23.2959 45.7698 23.545 45.7698C23.7942 45.7698 24.0331 45.6708 24.2093 45.4946C24.3855 45.3184 24.4845 45.0795 24.4845 44.8303V41.5889C24.4778 41.3441 24.3759 41.1116 24.2005 40.9409C24.025 40.7702 23.7898 40.6747 23.545 40.6748Z" fill="#8B4F96"/>
    <path d="M31.9746 19.9989V8.31949C31.9748 7.65456 31.7746 7.00501 31.4002 6.4555C31.0258 5.90599 30.4946 5.48201 29.8757 5.23883L17.1806 0.236973C16.7925 0.0835273 16.3793 0.00318602 15.9619 0C15.5445 0.00318602 15.1313 0.0835273 14.7432 0.236973L2.09046 5.23883C1.47317 5.48335 0.943729 5.9079 0.570921 6.4573C0.198113 7.0067 -0.000816539 7.65555 2.5191e-06 8.31949V35.2669L4.52791 33.4811L16.0296 28.9617L27.4636 33.4811L32 35.2669V20.0328L31.9746 19.9989ZM16.9437 25.771V22.868C16.9437 22.6189 16.8447 22.3799 16.6685 22.2037C16.4923 22.0276 16.2534 21.9286 16.0042 21.9286C15.7551 21.9286 15.5161 22.0276 15.3399 22.2037C15.1638 22.3799 15.0648 22.6189 15.0648 22.868V25.771L3.33457 30.4004V8.31949L15.0479 3.69003V13.7107C15.0479 13.9598 15.1469 14.1988 15.323 14.3749C15.4992 14.5511 15.7382 14.6501 15.9873 14.6501C16.2365 14.6501 16.4754 14.5511 16.6516 14.3749C16.8278 14.1988 16.9267 13.9598 16.9267 13.7107V3.69003L28.64 8.31949V30.4004L16.9437 25.771Z" fill="#8B4F96"/>
    <path d="M22.6056 37.2132C22.6056 37.4623 22.7046 37.7013 22.8807 37.8774C23.0569 38.0536 23.2959 38.1526 23.545 38.1526C23.7942 38.1526 24.0331 38.0536 24.2093 37.8774C24.3855 37.7013 24.4845 37.4623 24.4845 37.2132V34.818L22.6056 34.0732V37.2132Z" fill="#8B4F96"/>
    <path d="M15.0648 31.8473V41.5887C15.0648 41.8378 15.1638 42.0768 15.34 42.2529C15.5161 42.4291 15.7551 42.5281 16.0043 42.5281C16.2534 42.5281 16.4924 42.4291 16.6685 42.2529C16.8447 42.0768 16.9437 41.8378 16.9437 41.5887V31.8389L16.0296 31.4326L15.0648 31.8473Z" fill="#8B4F96"/>
    <path d="M7.56628 43.8234C7.56628 44.0725 7.66527 44.3115 7.84144 44.4876C8.01762 44.6638 8.25657 44.7628 8.50572 44.7628C8.75487 44.7628 8.99381 44.6638 9.16999 44.4876C9.34617 44.3115 9.44515 44.0725 9.44515 43.8234V34.082L7.56628 34.8183V43.8234Z" fill="#8B4F96"/>
</svg>